# AST/ASF file generated using VICON BodyLanguage
# -----------------------------------------------
:version 1.10
:name VICON
:units
  mass 1.0
  length 0.45
  angle deg
:documentation
   .ast/.asf automatically generated from VICON data using
   VICON BodyBuilder and BodyLanguage model FoxedUp or BRILLIANT.MOD
:root
   order TX TY TZ RX RY RZ
   axis XYZ
   position 0 0 0  
   orientation 0 0 0 
:bonedata
  begin
     id 1 
     name lhipjoint
     direction 0.822369 -0.411937 0.392449 
     length 3.8167 
     axis 0 0 0  XYZ
  end
  begin
     id 2 
     name lfemur
     direction 0.34202 -0.939693 0  
     length 6.16791  
     axis 0 0 20  XYZ
    dof rx ry rz
    limits (-160.0 20.0)
           (-70.0 70.0)
           (-60.0 70.0)
  end
  begin
     id 3 
     name ltibia
     direction 0.34202 -0.939693 0   
     length 7.07101   
     axis 0 0 20   XYZ
    dof rx
    limits (-10.0 170.0)
  end
  begin
     id 4 
     name lfoot
     direction 0.028254 -0.0776273 0.996582   
     length 1.66799   
     axis -90 7.62852e-016 20   XYZ
    dof rx rz
    limits (-45.0 90.0)
           (-70.0 20.0)
  end
  begin
     id 5 
     name ltoes
     direction 1.53483e-011 -4.21688e-011 1   
     length 0.851674   
     axis -90 7.62852e-016 20   XYZ
    dof rx
    limits (-90.0 20.0)
  end
  begin
     id 6 
     name rhipjoint
     direction -0.822466 -0.411836 0.392353   
     length 3.81764  
     axis 0 0 0  XYZ 
  end
  begin
     id 7 
     name rfemur
     direction -0.34202 -0.939693 0   
     length 6.28636   
     axis 0 0 -20   XYZ
    dof rx ry rz
    limits (-160.0 20.0)
           (-70.0 70.0)
           (-70.0 60.0)
  end
  begin
     id 8 
     name rtibia
     direction -0.34202 -0.939693 0   
     length 6.85621   
     axis 0 0 -20   XYZ
    dof rx
    limits (-10.0 170.0)
 end
 begin
     id 9 
     name rfoot
     direction -0.0553036 -0.151945 0.98684   
     length 1.57293  
     axis -90 -7.62852e-016 -20   XYZ
    dof rx rz
    limits (-45.0 90.0)
           (-20.0 70.0)
  end
  begin
     id 10 
     name rtoes
     direction -1.53592e-011 -4.21964e-011 1   
     length 0.802812   
     axis -90 -7.62852e-016 -20   XYZ
    dof rx
    limits (-90.0 20.0)
  end
  begin
     id 11 
     name lowerback
     direction 0.00654913 0.996475 -0.0836396   
     length 1.97212   
     axis 0 0 0   XYZ
    dof rx ry rz
    limits (-20.0 45.0)
           (-30.0 30.0)
           (-30.0 30.0)
  end
  begin
     id 12 
     name upperback
     direction 0.0111875 0.994527 0.103877   
     length 1.89704   
     axis 0 0 0   XYZ
    dof rx ry rz
    limits (-20.0 45.0)
           (-30.0 30.0)
           (-30.0 30.0)
  end
  begin
     id 13 
     name thorax
     direction 0.00473652 0.989004 0.147814   
     length 1.94516   
     axis 0 0 0   XYZ
    dof rx ry rz
    limits (-20.0 45.0)
           (-30.0 30.0)
           (-30.0 30.0)
  end
  begin
     id 14 
     name lowerneck
     direction -0.00925808 0.999011 0.0434791   
     length 1.81771   
     axis 0 0 0   XYZ
    dof rx ry rz
    limits (-20.0 45.0)
           (-30.0 30.0)
           (-30.0 30.0)
  end
  begin
     id 15 
     name upperneck
     direction 0.00451595 0.964412 -0.264365   
     length 1.80434   
     axis 0 0 0   XYZ
    dof rx ry rz
    limits (-20.0 45.0)
           (-30.0 30.0)
           (-30.0 30.0)
  end
  begin
     id 16
     name head
     direction -0.00110849 0.995756 -0.0920241  
     length 1.84006  
     axis 0 0 0   XYZ
    dof rx ry rz
    limits (-20.0 45.0)
           (-30.0 30.0)
           (-30.0 30.0)
  end
  begin
     id 17 
     name lclavicle
     direction 0.921253 0.385213 0.0538957  
     length 3.67415  
     axis 0 0 0   XYZ
    dof ry rz
    limits (-20.0 10.0)
           (0.0 20.0)
  end
  begin
     id 18 
     name lhumerus
     direction 1 -4.48961e-011 6.73441e-028   
     length 4.32712   
     axis 180 -30 -90   XYZ
    dof rx ry rz
    limits (-60.0 90.0)
           (-90.0 90.0)
           (-90.0 90.0)
  end
  begin
     id 19
     name lradius
     direction 1 -4.48985e-011 -9.53507e-028   
     length 3.28587   
     axis 180 -30 -90   XYZ
    dof rx
    limits (-10.0 170.0)
  end
  begin
     id 20
     name lwrist
     direction 1 -4.48951e-011 -4.67472e-027   
     length 1.64293   
     axis 1.65735e-015 90 90   XYZ
    dof ry
    limits (-180.0 0.0)
 end
  begin
     id 21 
     name lhand
     direction 1 -4.48946e-011 -9.34945e-027   
     length 0.433158   
     axis 5.96574e-015 90 90   XYZ
    dof rx rz
    limits (-90.0 90.0)
           (-45.0 45.0)
  end
  begin
     id 22 
     name lfingers
     direction 1 -4.48882e-011 -1.86989e-026   
     length 0.349224   
     axis 1.19315e-014 90 90   XYZ
    dof rx
    limits (0.0 90.0)
  end
  begin
     id 23
     name lthumb
     direction 0.707107 -6.3493e-011 0.707107   
     length 0.501417   
     axis -90 45 2.85299e-015   XYZ
    dof rx rz
    limits (-45.0 45.0)
           (-45.0 45.0)
  end
  begin
     id 24 
     name rclavicle
     direction -0.884378 0.46502 -0.0403866   
     length 3.50218  
     axis 0 0 0   XYZ 
    dof ry rz
    limits (-10.0 20.0)
           (-20.0 0.0)
  end
  begin
     id 25 
     name rhumerus
     direction -1 -4.48964e-011 1.58188e-027  
     length 4.29104   
     axis 180 30 90   XYZ
    dof rx ry rz
    limits (-90.0 60.0)
           (-90.0 90.0)
           (-90.0 90.0)
  end
  begin
     id 26 
     name rradius
     direction -1 -4.48978e-011 -1.9722e-027   
     length 3.2272   
     axis 180 30 90   XYZ
    dof rx
    limits (-10.0 170.0)
  end
  begin
     id 27 
     name rwrist
     direction -1 -4.48969e-011 -4.67472e-027   
     length 1.6136   
     axis 1.65735e-015 -90 -90   XYZ
    dof ry
    limits (-180.0 0.0)
  end
  begin
     id 28
     name rhand
     direction -1 -4.48846e-011 -9.34945e-027   
     length 0.543623   
     axis 5.96574e-015 -90 -90   XYZ
    dof rx rz
    limits (-90.0 90.0)
           (-45.0 45.0)
  end
  begin
     id 29
     name rfingers
     direction -1 -4.49074e-011 -1.86989e-026   
     length 0.438283   
     axis 1.19315e-014 -90 -90   XYZ
    dof rx
    limits (0.0 90.0)
  end
  begin
     id 30
     name rthumb
     direction -0.707107 -6.34834e-011 0.707107   
     length 0.629289   
     axis -90 -45 -2.85299e-015   XYZ
    dof rx rz
    limits (-45.0 45.0)
           (-45.0 45.0)
  end
:hierarchy
  begin
    root lhipjoint rhipjoint lowerback
    lhipjoint lfemur
    lfemur ltibia
    ltibia lfoot
    lfoot ltoes
    rhipjoint rfemur
    rfemur rtibia
    rtibia rfoot
    rfoot rtoes
    lowerback upperback
    upperback thorax
    thorax lowerneck lclavicle rclavicle
    lowerneck upperneck
    upperneck head
    lclavicle lhumerus
    lhumerus lradius
    lradius lwrist
    lwrist lhand lthumb
    lhand lfingers
    rclavicle rhumerus
    rhumerus rradius
    rradius rwrist
    rwrist rhand rthumb
    rhand rfingers
  end

#!OML:ASF H:\GeneralSubjects\Female5\Project 1\Capture day 1\Session 1\Female5.ASF
:FULLY-SPECIFIED
:DEGREES
261
root 20.5226 15.6469 7.37002 141.424 -83.2156 590.977
lowerback 20.8179 6.47845 18.4483
upperback -14.8319 13.0447 -11.3298
thorax -23.2269 -0.00298961 -31.4014
lowerneck -6.78021 -8.53531 4.72882
upperneck 42.0615 -24.925 14.4393
head 19.6356 -9.00732 1.1388
rclavicle 1.69762e-013 -2.8625e-014
rhumerus -66.8263 -17.5214 -83.4379
rradius 40.6827
rwrist -9.36536
rhand -21.5763 -17.4276
rfingers 7.12502
rthumb 4.81789 -47.3529
lclavicle 1.69762e-013 -2.8625e-014
lhumerus -51.6517 -43.3606 90.597
lradius 37.8553
lwrist -8.23248
lhand -26.02 35.8847
lfingers 7.12502
lthumb 0.52645 65.8638
rfemur -13.8185 10.6435 38.0995
rtibia 5.9308
rfoot -17.4645 -12.696
rtoes -0.96315
lfemur -24.4261 4.92603 -16.478
ltibia 60.003
lfoot -10.349 16.8952
ltoes -67.3943
262
root 20.2688 15.6649 7.339 145.719 -82.8972 586.551
lowerback 21.1359 6.61721 18.2368
upperback -14.798 13.2136 -11.3833
thorax -23.3172 0.0724239 -31.4679
lowerneck -6.86964 -8.39575 4.6799
upperneck 42.4216 -24.8555 14.4008
head 19.9091 -8.9582 1.14121
rclavicle 6.08281e-014 3.18055e-014
rhumerus -65.5587 -17.0712 -83.138
rradius 40.9614
rwrist -8.99504
rhand -21.875 -18.1054
rfingers 7.12502
rthumb 4.52949 -48.037
lclavicle 6.08281e-014 3.18055e-014
lhumerus -50.8321 -42.8857 89.5595
lradius 39.2683
lwrist -6.78796
lhand -27.1812 36.3594
lfingers 7.12502
lthumb -0.595065 66.3383
rfemur -11.9994 11.6135 38.1444
rtibia 4.80629
rfoot -17.9283 -13.0653
rtoes -1.66288
lfemur -27.4785 4.63962 -16.9122
ltibia 59.6266
lfoot -13.8135 17.0411
ltoes -68.0475
263
root 20.0148 15.6785 7.31138 148.585 -82.4379 583.528
lowerback 21.52 6.69328 18.3304
upperback -14.7327 13.431 -11.4145
thorax -23.3145 0.142948 -31.7161
lowerneck -6.9267 -8.33383 4.63556
upperneck 42.5195 -24.7733 14.371
head 19.9816 -8.92168 1.14841
rclavicle -1.98785e-014 -9.54166e-014
rhumerus -64.0176 -16.642 -83.0503
rradius 40.9444
rwrist -8.0516
rhand -23.0053 -18.4989
rfingers 7.12502
rthumb 3.438 -48.4509
lclavicle -1.98785e-014 -9.54166e-014
lhumerus -50.3197 -42.7314 88.7511
lradius 41.0975
lwrist -4.73374
lhand -28.5301 34.2029
lfingers 7.12502
lthumb -1.89787 64.1742
rfemur -10.1279 12.4057 38.4414
rtibia 3.72281
rfoot -18.1264 -13.152
rtoes -1.53951
lfemur -30.3651 4.27215 -17.1171
ltibia 58.8227
lfoot -16.5642 16.4016
ltoes -67.7082
264
root 19.758 15.6875 7.29052 150.416 -81.9827 581.576
lowerback 21.6472 6.8493 18.2733
upperback -14.8017 13.6728 -11.3902
thorax -23.3511 0.248715 -31.7292
lowerneck -6.41823 -8.20474 4.99018
upperneck 42.648 -24.5768 14.2624
head 19.824 -8.84644 1.12898
rclavicle -2.34566e-014 9.54166e-015
rhumerus -62.7954 -16.0925 -83.1053
rradius 40.8056
rwrist -6.65615
rhand -25.7376 -18.925
rfingers 7.12502
rthumb 0.799179 -48.9032
lclavicle -2.34566e-014 9.54166e-015
lhumerus -50.8396 -42.9023 88.5217
lradius 43.4458
lwrist -2.63614
lhand -28.972 36.7933
lfingers 7.12502
lthumb -2.3247 66.7604
rfemur -8.22436 12.9431 38.8281
rtibia 2.53358
rfoot -17.9932 -13.3386
rtoes -1.25791
lfemur -32.9808 3.67313 -17.2047
ltibia 57.1461
lfoot -18.4158 16.0702
ltoes -67.2445
265
root 19.496 15.6927 7.27191 151.504 -81.5296 580.37
lowerback 21.9181 6.91717 18.525
upperback -14.7677 13.9352 -11.3746
thorax -23.2512 0.350932 -31.97
lowerneck -6.38986 -8.23976 4.95254
upperneck 42.7725 -24.6329 14.1669
head 19.8895 -8.87887 1.08351
rclavicle 7.11649e-014 2.8625e-014
rhumerus -61.2993 -15.7822 -82.9028
rradius 40.74
rwrist -6.28567
rhand -26.9862 -20.4404
rfingers 7.12502
rthumb -0.40674 -50.4198
lclavicle 7.11649e-014 2.8625e-014
lhumerus -49.4806 -41.8209 87.2432
lradius 44.2595
lwrist -1.96266
lhand -29.7512 37.6445
lfingers 7.12502
lthumb -3.07719 67.602
rfemur -6.26121 13.5755 39.2877
rtibia 1.25904
rfoot -18.0987 -14.4443
rtoes -5.04578
lfemur -35.3193 2.84171 -17.1299
ltibia 54.6524
lfoot -19.6272 16.3253
ltoes -66.9742
266
root 19.2359 15.6904 7.25538 152.136 -80.9888 579.673
lowerback 22.0159 7.00152 18.8336
upperback -14.8549 14.2196 -11.3566
thorax -23.1827 0.429049 -32.2359
lowerneck -5.8383 -8.11574 5.31277
upperneck 42.8552 -24.4031 14.0427
head 19.679 -8.79891 1.06413
rclavicle -1.66979e-014 -3.18055e-015
rhumerus -60.0936 -15.597 -82.6215
rradius 40.726
rwrist -6.79342
rhand -25.4851 -20.8521
rfingers 7.12502
rthumb 1.04305 -50.8293
lclavicle -1.66979e-014 -3.18055e-015
lhumerus -49.312 -41.4915 86.5601
lradius 45.6374
lwrist -0.414972
lhand -29.8037 36.8562
lfingers 7.12502
lthumb -3.12789 66.8131
rfemur -4.45341 14.2576 39.8487
rtibia 0.17987
rfoot -18.3684 -15.2879
rtoes -7.17157
lfemur -37.5357 1.98263 -16.8237
ltibia 51.6187
lfoot -20.2133 16.8082
ltoes -67.0985
267
root 18.9801 15.6813 7.23972 151.966 -80.4494 579.847
lowerback 22.2914 7.04993 19.3099
upperback -14.9117 14.574 -11.2975
thorax -23.1137 0.514795 -32.6014
lowerneck -5.77191 -8.09273 5.2129
upperneck 43.0131 -24.3655 13.9713
head 19.7616 -8.80056 1.06206
rclavicle -5.725e-014 2.22639e-014
rhumerus -58.7448 -15.387 -82.3067
rradius 40.4778
rwrist -6.62314
rhand -23.0281 -20.1743
rfingers 7.12502
rthumb 3.41599 -50.1267
lclavicle -5.725e-014 2.22639e-014
lhumerus -49.4381 -41.6558 86.3307
lradius 47.1742
lwrist 1.05129
lhand -30.0304 35.4244
lfingers 7.12502
lthumb -3.3468 65.3779
rfemur -2.86922 14.7961 40.5092
rtibia -0.633944
rfoot -18.7416 -15.4708
rtoes -6.46338
lfemur -39.4599 1.04075 -16.249
ltibia 47.8706
lfoot -20.537 17.0106
ltoes -67.4749
268
root 18.7214 15.6669 7.22289 151.19 -79.8933 580.69
lowerback 22.4145 7.16552 19.7207
upperback -15.0596 14.9834 -11.2083
thorax -23.0477 0.640995 -32.8457
lowerneck -5.60876 -7.99772 5.29734
upperneck 43.3302 -24.3074 13.8746
head 19.9024 -8.76925 1.03477
rclavicle 7.95139e-014 -8.90555e-014
rhumerus -57.563 -15.0174 -82.2372
rradius 40.0798
rwrist -6.58888
rhand -21.9061 -21.2706
rfingers 7.12502
rthumb 4.49943 -51.2028
lclavicle 7.95139e-014 -8.90555e-014
lhumerus -49.8702 -41.9405 86.385
lradius 48.3729
lwrist 1.87729
lhand -29.9161 34.5839
lfingers 7.12502
lthumb -3.23646 64.5391
rfemur -1.43103 15.3132 41.2841
rtibia -1.26944
rfoot -19.1058 -15.7129
rtoes -6.9087
lfemur -40.9135 0.0090041 -15.3642
ltibia 43.2005
lfoot -20.6344 17.0257
ltoes -67.6836
269
root 18.459 15.6487 7.20662 150.553 -79.2607 581.491
lowerback 22.4149 7.37971 20.0813
upperback -15.291 15.4954 -11.1262
thorax -22.9475 0.830553 -33.0462
lowerneck -5.0724 -7.99465 5.5824
upperneck 43.2311 -24.1518 13.7613
head 19.5869 -8.73027 1.01474
rclavicle 1.07741e-013 -6.67916e-014
rhumerus -56.5751 -14.7155 -82.141
rradius 39.7564
rwrist -6.42005
rhand -27.4533 -17.0817
rfingers 7.12502
rthumb -0.857884 -47.0597
lclavicle 1.07741e-013 -6.67916e-014
lhumerus -49.7115 -41.9287 86.3734
lradius 48.4549
lwrist 1.89153
lhand -28.6553 34.5562
lfingers 7.12502
lthumb -2.01878 64.5264
rfemur -0.162336 15.8998 42.0812
rtibia -1.76612
rfoot -19.4147 -15.9605
rtoes -8.07948
lfemur -42.0076 -1.23353 -14.103
ltibia 37.7186
lfoot -20.086 17.4293
ltoes -68.0021
